<svg xmlns="http://www.w3.org/2000/svg" width="512" height="512"><g xmlns="http://www.w3.org/2000/svg" fill="#b4c5d5"><path d="M454.158 257.777l8.278 23.277c.354.997 1.056 1.786 1.942 2.185l20.681 9.317c2.922 1.316 2.922 5.972 0 7.288l-20.681 9.318c-.885.399-1.587 1.189-1.942 2.185l-8.278 23.277c-1.169 3.289-5.305 3.289-6.475 0l-8.278-23.277c-.354-.997-1.056-1.786-1.942-2.185l-20.681-9.318c-2.922-1.316-2.922-5.971 0-7.288l20.681-9.317c.885-.399 1.587-1.189 1.942-2.185l8.278-23.277c1.169-3.289 5.305-3.289 6.475 0zM54.101 216.2l6.141 17.266c.263.739.783 1.325 1.44 1.621l15.341 6.911c2.167.977 2.167 4.43 0 5.406l-15.341 6.911c-.657.296-1.177.882-1.44 1.621l-6.141 17.266c-.868 2.439-3.935 2.439-4.803 0l-6.141-17.266c-.263-.739-.783-1.325-1.44-1.621l-15.341-6.911c-2.167-.977-2.167-4.43 0-5.406l15.341-6.911c.657-.296 1.177-.882 1.44-1.621l6.141-17.266c.867-2.439 3.935-2.439 4.803 0zm328.431 207.33l6.141 17.266c.263.739.783 1.325 1.44 1.621l15.341 6.911c2.167.977 2.167 4.43 0 5.406l-15.341 6.911c-.657.296-1.177.882-1.44 1.621l-6.141 17.267c-.867 2.439-3.935 2.439-4.803 0l-6.141-17.267c-.263-.739-.783-1.325-1.44-1.621l-15.341-6.911c-2.167-.977-2.167-4.43 0-5.406l15.341-6.911c.657-.296 1.177-.882 1.44-1.621l6.141-17.266c.868-2.44 3.936-2.44 4.803 0z" data-original="#000000"/><circle cx="56.059" cy="369.036" r="18.076" data-original="#000000"/><circle cx="452.932" cy="399.347" r="7.798" data-original="#000000"/><path d="M439.124 129.086c-3.113-6.096-7.619-11.185-13.118-14.939.255-.666.495-1.339.717-2.022 6.852-21.151-4.781-43.933-25.932-50.785h-.001c-10.314-3.341-21.01-2.277-30.062 2.132a40.124 40.124 0 00-14.065-7.971 40.072 40.072 0 00-17.281-1.658 40.112 40.112 0 00-4.081-10.99c-5.18-9.443-13.726-16.304-24.065-19.319-6.571-1.916-13.364-2.119-19.868-.691a40.341 40.341 0 00-.981-1.919C279.696 1.431 255.139-5.73 235.645 4.962c-9.506 5.214-16.068 13.727-19.069 23.341a40.15 40.15 0 00-15.447 4.765c-9.443 5.18-16.304 13.726-19.319 24.066-.257.88-.478 1.764-.673 2.65a40.33 40.33 0 00-13.904-1.186h-.001c-10.793.947-20.222 6.094-26.837 13.679a40.157 40.157 0 00-16.071-1.841h-.001c-22.148 1.943-38.586 21.542-36.645 43.69a40.314 40.314 0 003.739 13.792c-7.133 8.008-11.097 18.807-10.089 30.309 1.461 16.657 12.91 30.075 27.917 34.883 5.878 18.304 14.774 42.416 27.095 66.735 14.691 28.997 31.233 52.206 49.165 68.981a152.006 152.006 0 007.177 6.297l-72.007 83.183c-.13.15-.255.303-.375.461-4.386 5.714-6.098 12.855-4.822 20.107 1.363 7.743 6.065 14.687 12.903 19.049l12.635 8.06c4.746 3.028 10.139 4.604 15.569 4.604 1.618 0 3.241-.14 4.849-.423 4.614-.813 8.771-2.73 12.191-5.56l-2.988 9.861c-.053.174-.101.35-.144.526-1.849 7.557-.445 15.61 3.852 22.095s11.166 10.917 18.846 12.16l14.794 2.394a28.03 28.03 0 004.484.362c13.469 0 25.371-9.785 27.592-23.501l5.772-35.667h49.258c6.396 0 12.539-2.885 16.856-7.915 4.825-5.621 6.927-13.184 5.766-20.747-1.961-12.784-4.708-24.12-8.173-33.952 10.227-4.003 17.492-13.96 17.492-25.588v-1.076c0-7.699-3.188-14.664-8.307-19.657 6.471-4.275 12.776-9.315 18.898-15.122 17.702-16.793 33.915-40.021 48.187-69.04 13.485-27.418 22.622-54.576 28.112-73.444a40.654 40.654 0 007.63-2.959c9.593-4.898 16.703-13.238 20.022-23.484 3.318-10.246 2.448-21.172-2.45-30.764zM394.58 80.514c10.578 3.427 16.396 14.821 12.969 25.399a20.033 20.033 0 01-10.013 11.745c-.809.413-1.639.764-2.481 1.06a30.358 30.358 0 00-1.731-4.11c-3.627-7.102-9.802-12.367-17.388-14.824a29.784 29.784 0 00-7.69-1.411c.106-1.627.409-3.267.934-4.889 2.76-8.522 10.689-13.953 19.199-13.953 2.054 0 4.143.317 6.201.983zm-13.021 91.449c-3.427 10.579-14.824 16.395-25.399 12.97a19.916 19.916 0 01-5.025-2.468c.929-8.977-1.128-18.294-6.453-26.345a19.943 19.943 0 013.436-4.584 29.846 29.846 0 009.415 5.051 29.738 29.738 0 009.18 1.456c4.468 0 8.819-1.029 12.768-2.898 3.018 4.863 3.977 10.959 2.078 16.818zm-90.642-86.791a20.032 20.032 0 0112.036 9.661c.175.32.323.647.479.972-.193.095-.391.174-.584.273-9.592 4.898-16.703 13.238-20.021 23.484a40.313 40.313 0 00-1.227 4.786 20.533 20.533 0 01-1.973-.457 20.033 20.033 0 01-12.036-9.662 20.055 20.055 0 01-2.471-9.086 29.657 29.657 0 0010.165-3.373c6.736-3.694 11.69-9.708 14.04-16.989.533.111 1.064.237 1.592.391zm58.92 37.54a17.643 17.643 0 018.82-10.345 17.685 17.685 0 018.059-1.952c1.841 0 3.691.29 5.493.873a17.645 17.645 0 0110.345 8.819 17.643 17.643 0 011.079 13.551 17.643 17.643 0 01-8.819 10.344 17.646 17.646 0 01-13.552 1.079 17.643 17.643 0 01-10.344-8.819 17.632 17.632 0 01-1.081-13.55zm-12.474 10.883c.028.153.063.304.094.457a39.806 39.806 0 00-8.022 8.425c-8.32-4.244-17.942-5.511-27.123-3.482-1.537-4.107-1.763-8.732-.31-13.22a20 20 0 018.047-10.585c4.853 7.793 12.365 13.986 21.762 17.03a41.062 41.062 0 005.552 1.375zm-121.09 71.194c-6.385-9.103-4.174-21.704 4.929-28.09a20.01 20.01 0 014.578-2.398 40.174 40.174 0 005.214 10.337 40.022 40.022 0 0012.888 11.756 29.505 29.505 0 002.559 11.616 19.543 19.543 0 01-2.076 1.708c-9.103 6.385-21.705 4.174-28.092-4.929zm-24.477-71.64a40.602 40.602 0 0014.853-16.059c8.718 1.582 15.675 8.822 16.486 18.063a20.039 20.039 0 01-4.638 14.721 20.041 20.041 0 01-8.119 5.826c-3.436-9.249-10.126-16.819-18.589-21.42.009-.375.011-.753.007-1.131zm64.795 38.311a30.008 30.008 0 00-5.752 5.274 19.82 19.82 0 01-3.345-3.671c-6.386-9.103-4.174-21.704 4.929-28.091 9.103-6.385 21.704-4.174 28.09 4.929a20.036 20.036 0 013.354 15.066 20.142 20.142 0 01-.67 2.633c-8.676-2.888-18.563-1.782-26.606 3.86zm14.076 41.935c-4.673-.82-8.747-3.41-11.471-7.294s-3.773-8.596-2.953-13.269 3.41-8.747 7.294-11.471a17.657 17.657 0 0110.175-3.215c5.599 0 11.114 2.635 14.566 7.556 5.624 8.017 3.677 19.116-4.341 24.741a17.64 17.64 0 01-13.27 2.952zm5.834-146.342a17.643 17.643 0 011.479 13.513c-1.328 4.555-4.35 8.319-8.51 10.601s-8.96 2.808-13.513 1.479a17.645 17.645 0 01-10.601-8.51 17.643 17.643 0 01-1.479-13.513 17.644 17.644 0 018.51-10.601 17.657 17.657 0 0113.513-1.479 17.649 17.649 0 0110.601 8.51zm-36.592 36.721a40.6 40.6 0 004.82-3.122c.125.081.253.158.379.236-.689 7.424.706 14.878 4.099 21.656a19.898 19.898 0 01-1.644 2.125 40.417 40.417 0 00-5.302 2.864c-1.879-7.875-6.051-14.779-11.712-20.059a40.212 40.212 0 009.36-3.7zm-60.264 28.107c.414 4.726-1.036 9.331-4.085 12.966s-7.331 5.865-12.057 6.279c-9.764.862-18.39-6.386-19.245-16.142a17.643 17.643 0 014.085-12.966 17.641 17.641 0 0112.056-6.279 17.942 17.942 0 011.565-.068c9.098 0 16.871 6.979 17.681 16.21zm-25.739 30.298a29.617 29.617 0 0010.653.995c7.875-.69 14.77-4.402 19.656-9.883 4.673 3.295 7.926 8.536 8.464 14.669.47 5.366-1.177 10.594-4.638 14.721s-8.323 6.659-13.689 7.129c-5.369.474-10.594-1.177-14.721-4.638s-6.659-8.323-7.129-13.689a19.934 19.934 0 011.404-9.304zm75.352 71.161c1.19.105 2.384.176 3.582.176a40.1 40.1 0 0023.098-7.298 40.26 40.26 0 004.441-3.628c.14.07.284.132.425.2a39.956 39.956 0 006.436 21.068 20.01 20.01 0 01-6.298 7.217c-9.102 6.386-21.703 4.174-28.09-4.929a20.006 20.006 0 01-3.594-12.806zm55.344.23a19.984 19.984 0 01-3.455-8.767 29.659 29.659 0 009.734-4.461c6.478-4.545 10.591-11.217 12.073-18.417 5.694.528 11.133 3.447 14.666 8.483 6.386 9.103 4.174 21.704-4.929 28.09-9.102 6.387-21.704 4.174-28.089-4.928zm15.402-51.846a31.403 31.403 0 00-.57-1.004 40.3 40.3 0 004.839-21.353 20.085 20.085 0 016.753-1.181c6.357 0 12.619 2.991 16.538 8.578 5.257 7.495 4.676 17.353-.77 24.169-7.6-6.277-17.169-9.46-26.79-9.209zm50.448-107.049a19.958 19.958 0 014.669 2.216 40.21 40.21 0 00-5.115 10.382 40.027 40.027 0 00-1.64 17.391 29.693 29.693 0 00-7.73 9.03 20.026 20.026 0 01-2.613-.65c-10.579-3.427-16.397-14.821-12.97-25.399 2.76-8.521 10.689-13.953 19.198-13.953 2.054 0 4.144.316 6.201.983zm-44.858-31.791a20.036 20.036 0 0112.036 9.662 19.972 19.972 0 012.454 9.058 40.144 40.144 0 00-10.128 11.036 40.211 40.211 0 00-13.397-6.818 40.675 40.675 0 00-7.985-1.486c-.14-.341-.287-.681-.44-1.018a40.597 40.597 0 007.142-20.694 19.916 19.916 0 014.644-.556c1.896 0 3.804.271 5.674.816zm-60.257-20.25c9.75-5.348 22.032-1.765 27.379 7.984 3.139 5.724 3.184 12.313.725 17.864a30.233 30.233 0 00-4.155-1.548c-7.656-2.232-15.722-1.35-22.714 2.485a30.023 30.023 0 00-6.309 4.623 20.134 20.134 0 01-2.909-4.029c-5.348-9.75-1.766-22.032 7.983-27.379zm-44.178 40.142a20.033 20.033 0 019.662-12.036 20.224 20.224 0 014.812-1.889 40.198 40.198 0 004.049 10.856 39.975 39.975 0 0011.519 13.096 29.506 29.506 0 001.268 11.836 19.913 19.913 0 01-2.253 1.465c-7.117 3.904-15.573 3.031-21.706-1.508a39.873 39.873 0 00-7.877-12.903 20.062 20.062 0 01.526-8.917zm-32.166 15.9c11.076-.983 20.879 7.25 21.85 18.328.571 6.511-2.043 12.568-6.541 16.657-6.065-6.839-15.175-10.829-24.959-9.968-2.643.232-5.2.808-7.629 1.69a20.119 20.119 0 01-1.049-4.856c-.971-11.078 7.25-20.88 18.328-21.851zm-42.909 11.837a20.162 20.162 0 015.163.219 40.162 40.162 0 00-.66 11.555 40.041 40.041 0 005.265 16.64 29.493 29.493 0 00-3.594 11.349c-.867.193-1.751.335-2.651.414a20.036 20.036 0 01-14.72-4.638 20.037 20.037 0 01-7.13-13.689c-.972-11.076 7.25-20.879 18.327-21.85zm-21.397 53.099a39.95 39.95 0 0023.088 7.315 40.864 40.864 0 009.264-1.062c.09.137.178.276.271.411a39.998 39.998 0 00-4.986 21.42 19.974 19.974 0 01-9.067 3.096c-11.082.982-20.879-7.25-21.851-18.327a20.012 20.012 0 013.281-12.853zm119.277 228.337c-4.035 0-7.318-3.283-7.318-7.318v-1.076c0-4.035 3.283-7.318 7.318-7.318h75.594c4.035 0 7.318 3.283 7.318 7.318v1.076c0 4.035-3.283 7.318-7.318 7.318zm-62.118 75.904c-1.051 1.648-2.707 2.247-3.91 2.459-2.026.356-4.185-.114-6.081-1.323l-12.634-8.06c-2.088-1.333-3.507-3.355-3.893-5.55-.194-1.103-.198-2.702.832-4.167l60.423-69.801a27.644 27.644 0 00-.092 2.144v1.076c0 4.798 1.24 9.311 3.411 13.241l-5.961 19.674zm49.358 43.889l-14.794-2.395a7.728 7.728 0 01-5.264-3.397 7.724 7.724 0 01-1.125-5.958l13.563-44.767a25.106 25.106 0 005.139 9.692c4.28 4.987 10.356 7.861 16.692 7.91l-5.252 32.451c-.688 4.253-4.708 7.148-8.959 6.464zm85.447-59.951c-.347.404-.9.886-1.561.886h-69.511c-.662 0-1.214-.482-1.561-.886-.976-1.138-1.402-2.844-1.138-4.564 1.08-7.043 3.809-21.757 9.235-35.122h56.44c5.426 13.365 8.155 28.08 9.235 35.123.263 1.719-.162 3.425-1.139 4.563zm-6.335-95.709h-12.185l20.668-41.458a6.046 6.046 0 10-10.823-5.395l-23.358 46.853h-7.628l-24.949-47.462a6.047 6.047 0 10-10.704 5.627l21.991 41.835h-10.226c-53.663-20.636-86.648-95.961-102.281-142.155a39.892 39.892 0 007.673-2.666 40.392 40.392 0 008.184 9.351c7.328 6.146 16.391 9.431 25.842 9.431 1.192 0 2.391-.052 3.593-.157a40.067 40.067 0 0017.802-5.965 40.126 40.126 0 005.858 12.441 40.099 40.099 0 0010.138 10.039c-2.174 10.512-.196 21.857 6.441 31.318 7.837 11.173 20.356 17.153 33.066 17.153 7.996 0 16.07-2.368 23.098-7.298a40.063 40.063 0 009.871-9.893 40.602 40.602 0 0018.781 4.616c7.997 0 16.07-2.367 23.098-7.298 15.415-10.814 20.941-30.54 14.517-47.383a39.954 39.954 0 005.188-5.99 40.746 40.746 0 005.977 2.482 40.397 40.397 0 0012.469 1.982c6.288 0 12.532-1.488 18.294-4.431a40.488 40.488 0 009.318-6.554c-15.077 46.242-46.832 120.509-99.713 140.977zm132.083-182.444a20.036 20.036 0 01-10.013 11.745 19.94 19.94 0 01-9.724 2.17c.32-6.909-1.146-13.815-4.376-20.141a40.656 40.656 0 00-4.41-6.84c.15-.33.311-.653.45-.991a40.367 40.367 0 0019.958-8.99c7.39 4.864 10.971 14.23 8.115 23.047z" data-original="#000000"/></g></svg>